<svg xmlns="http://www.w3.org/2000/svg" viewBox="0 0 941 290.08">
  <defs>
    <style>
      .cls-1 {
        fill: #efe8d5;
        stroke: #1e1e1e;
      }

      .cls-1, .cls-2 {
        stroke-miterlimit: 10;
        stroke-width: 4px;
      }

      .cls-2 {
        fill: #1d1d1d;
        stroke: #000;
      }

      .cls-3 {
        fill: #1e1e1e;
      }
    </style>
  </defs>
  <title>Asset 1</title>
  <g id="Layer_2" data-name="Layer 2">
    <g id="Layer_1-2" data-name="Layer 1">
      <g>
        <path class="cls-1" d="M816.15,286.39H3.8V117.88C3.8,54.82,58,3.69,124.86,3.69H937.2V172.21C937.2,235.27,883,286.39,816.15,286.39Z"/>
        <path class="cls-2" d="M816.15,286.39V284.7H5.59V117.88c0-31.07,13.35-59.18,34.93-79.55A122.63,122.63,0,0,1,124.86,5.39H935.41V172.21c0,31.07-13.35,59.18-34.93,79.54a122.57,122.57,0,0,1-84.33,32.95v3.38C884,288.08,939,236.2,939,172.21V2H124.86C57,2,2,53.88,2,117.88v170.2H816.15Z"/>
      </g>
      <path class="cls-3" d="M175.91,140.18V149s-32.34,1.53-32.34,30.68h-8.46S132.48,165.21,148,149h-82v-8.79h82c-15.51-16.25-12.87-30.68-12.87-30.68h8.46c0,29.11,32.34,30.68,32.34,30.68Z"/>
      <g>
        <path class="cls-3" d="M240.36,145.36h36.13V189.3h-7.65l-1.37-9.79c-7.28,7.43-17.44,11.55-29.62,11.55-25.46,0-41.91-18.18-41.91-46.33,0-14.34,4.29-26.31,12.41-34.58,7.42-7.57,17.9-11.74,29.5-11.74,18,0,32.42,8.83,38.64,28.67H267c-5.13-14.1-17.44-19.64-29.15-19.64-16.13,0-32.88,10.37-32.88,37.29,0,27.83,18,37.3,32.88,37.3,12.06,0,29.62-5,29.62-28H240.36Z"/>
        <path class="cls-3" d="M368,144.78c0,34.15-21.65,46.33-41.91,46.33-25.46,0-41.91-18.19-41.91-46.33,0-14.35,4.29-26.31,12.41-34.59,7.42-7.57,17.9-11.74,29.5-11.74C351.53,98.45,368,116.19,368,144.78Zm-9,0c0-27.75-16.75-37.3-32.88-37.3s-32.88,10.58-32.88,37.3c0,27.55,16.74,37.29,32.88,37.29C346.65,182.07,359,168.63,359,144.78Z"/>
        <path class="cls-3" d="M495.43,156.84c-4.51,25-23.22,34.24-40.88,34.24-25.46,0-41.91-18.19-41.91-46.33,0-14.35,4.29-26.31,12.4-34.59,7.43-7.57,17.9-11.74,29.51-11.74,20.9,0,35.71,12,40.35,32.08h-9.29c-4.74-16.85-18.09-23-31.07-23-16.13,0-32.87,10.58-32.87,37.3,0,27.55,16.74,37.29,32.87,37.29,16.8,0,28.07-8.95,31.65-25.2Z"/>
        <path class="cls-3" d="M563.73,145.85H513.11V189.3h-9.06V100.22h9.06v36.95h50.62V100.22h9V189.3h-9Z"/>
        <path class="cls-3" d="M705.41,150.43H668.48v38.9h-9.23v-89l36.75,0c11.26,0,29.18,6.38,29.18,25.06S712,149.37,705.41,150.43Zm10.74-25.07c0-9.57-8.8-15.89-18.37-15.89h-29.3v31.91h29.3C710,141.38,716.15,136.64,716.15,125.36Zm10.92,64H716.46L695,150.43h10.39Z"/>
        <path class="cls-3" d="M793.94,100.24,764.2,153.29v36h-9v-36l-29.71-53h10.38l23.85,42.51,23.84-42.51Z"/>
        <path class="cls-3" d="M808.62,180.62H858.9v8.68H799.61v-89h9Z"/>
      </g>
      <path class="cls-3" d="M647.17,100.21H588s-1.74,21.92,10,36.91l4.21,4.53L598,146.19c-11.69,14.93-10,43.68-10,43.68h59.17v-9.14l-52.65.05c-.18-35.45,27.38-34.42,35.34-34.59v-9.07c-7-.57-34.57,0-35.34-27.77l52.65.05Z"/>
    </g>
  </g>
</svg>
